<svg width="104" height="104" viewBox="0 0 104 104" fill="none" xmlns="http://www.w3.org/2000/svg">
<rect width="104" height="104" rx="20" fill="url(#paint0_linear)"/>
<path d="M63.7337 60.2336L58.0287 67.3586C49.1943 62.1668 41.8311 54.8062 36.6362 45.9736L43.7675 40.2686C44.6032 39.5994 45.1938 38.6724 45.4471 37.6321C45.7003 36.5919 45.602 35.4971 45.1675 34.5186L38.6675 19.8811C38.2014 18.831 37.3775 17.9806 36.3427 17.4815C35.3078 16.9825 34.1294 16.8671 33.0175 17.1561L20.6425 20.3661C19.488 20.6679 18.4844 21.3826 17.8216 22.3748C17.1588 23.367 16.8829 24.5679 17.0462 25.7499C19.2178 41.214 26.3649 55.5508 37.407 66.5929C48.4491 77.6349 62.7858 84.782 78.25 86.9536C79.432 87.1169 80.6328 86.8411 81.6251 86.1783C82.6173 85.5155 83.332 84.5118 83.6337 83.3574L86.8437 70.9824C87.132 69.8706 87.0165 68.6926 86.5178 67.658C86.019 66.6234 85.1693 65.7993 84.12 65.3324L69.4837 58.8324C68.5052 58.3973 67.4101 58.2988 66.3698 58.5524C65.3294 58.8059 64.4023 59.3972 63.7337 60.2336V60.2336Z" stroke="white" stroke-width="3" stroke-miterlimit="10" stroke-linecap="square"/>
<path d="M55.75 18.25C63.7065 18.25 71.3371 21.4107 76.9632 27.0368C82.5893 32.6629 85.75 40.2935 85.75 48.25" stroke="white" stroke-width="3" stroke-miterlimit="10" stroke-linecap="square"/>
<path d="M70.75 48.25C70.75 44.2718 69.1696 40.4564 66.3566 37.6434C63.5435 34.8304 59.7282 33.25 55.75 33.25" stroke="white" stroke-width="3" stroke-miterlimit="10" stroke-linecap="square"/>
<defs>
<linearGradient id="paint0_linear" x1="52" y1="0" x2="52" y2="104" gradientUnits="userSpaceOnUse">
<stop stop-color="#B629F6"/>
<stop offset="1" stop-color="#7439F3"/>
</linearGradient>
</defs>
</svg>
