<svg width="104" height="104" viewBox="0 0 104 104" fill="none" xmlns="http://www.w3.org/2000/svg">
<rect width="104" height="104" rx="20" fill="url(#paint0_linear)"/>
<path d="M52 68.25C60.9746 68.25 68.25 60.9746 68.25 52C68.25 43.0254 60.9746 35.75 52 35.75C43.0254 35.75 35.75 43.0254 35.75 52C35.75 60.9746 43.0254 68.25 52 68.25Z" stroke="black" stroke-width="3" stroke-miterlimit="10" stroke-linecap="square"/>
<path d="M65.5 82.9412C58.8394 85.8481 51.4184 86.5275 44.3407 84.8782C37.263 83.2289 30.9066 79.3391 26.2171 73.7873C21.5276 68.2355 18.7553 61.3183 18.3127 54.0645C17.87 46.8106 19.7806 39.6077 23.7603 33.5269C27.74 27.4461 33.5762 22.8122 40.4008 20.3146C47.2255 17.817 54.674 17.5889 61.6387 19.6644C68.6034 21.7399 74.7121 26.008 79.0563 31.834C83.4005 37.66 85.7481 44.7326 85.75 51.9999V58.2499C85.75 60.5706 84.8281 62.7962 83.1872 64.4371C81.5463 66.0781 79.3207 66.9999 77 66.9999C74.6794 66.9999 72.4538 66.0781 70.8128 64.4371C69.1719 62.7962 68.25 60.5706 68.25 58.2499V38.2499" stroke="black" stroke-width="3" stroke-miterlimit="10" stroke-linecap="square"/>
<defs>
<linearGradient id="paint0_linear" x1="52" y1="0" x2="52" y2="104" gradientUnits="userSpaceOnUse">
<stop stop-color="#FBF050"/>
<stop offset="1" stop-color="#9AFA5B"/>
</linearGradient>
</defs>
</svg>
