<svg width="104" height="104" viewBox="0 0 104 104" fill="none" xmlns="http://www.w3.org/2000/svg">
<rect width="104" height="104" rx="20" fill="url(#paint0_linear)"/>
<path d="M19.9688 63.5312V27.6562C19.9688 25.9572 20.6437 24.3278 21.8451 23.1263C23.0465 21.9249 24.676 21.25 26.375 21.25H77.625C79.324 21.25 80.9535 21.9249 82.1549 23.1263C83.3563 24.3278 84.0312 25.9572 84.0312 27.6562V63.5312" stroke="white" stroke-width="3" stroke-miterlimit="10" stroke-linecap="square"/>
<path d="M62.25 71.2188V76.3438H41.75V71.2188H13.5625C13.5625 77.625 17.4062 82.75 23.8125 82.75H80.1875C86.5938 82.75 90.4375 77.625 90.4375 71.2188H62.25Z" stroke="white" stroke-width="3" stroke-miterlimit="10" stroke-linecap="square"/>
<path d="M52 34.0625L39.1875 44.3125V60.9688H48.1562V52H55.8438V60.9688H64.8125V44.3125L52 34.0625Z" stroke="white" stroke-width="3" stroke-miterlimit="10" stroke-linecap="square"/>
<defs>
<linearGradient id="paint0_linear" x1="52" y1="0" x2="52" y2="104" gradientUnits="userSpaceOnUse">
<stop stop-color="#6AD3EF"/>
<stop offset="1" stop-color="#56A6D9"/>
</linearGradient>
</defs>
</svg>
